# xmcd
#
# Track frame offsets: 
#        150
#        14730
#        40914
#        55327
#        72621
#        86797
#        109260
#        131506
#        147216
#        160792
#        184815
#        200123
#        214559
#
# Disc length: 3022 seconds
#
# Revision: 0
# Processed by: cddbd v1.5.2PL0 Copyright (c) Steve Scherf et al.
# Submitted via: ExactAudioCopy v0.95a5
#
DISCID=c80bcc0d
DTITLE=Various Artist - Hawaiian Cafe Covers disc2
DYEAR=2013
DGENRE=Country
TTITLE0=All you need is love
TTITLE1=Hey Jude
TTITLE2=Isn't she lovely
TTITLE3=Saturday in the park
TTITLE4=You are the sunshine of my life
TTITLE5=No woman no cry
TTITLE6=Could you be loved
TTITLE7=Hello goodbye
TTITLE8=In my life
TTITLE9=Buffalo soldier
TTITLE10=Jammin
TTITLE11=The loco motion
TTITLE12=Can't help falling in love
EXTD=
EXTT0=
EXTT1=
EXTT2=
EXTT3=
EXTT4=
EXTT5=
EXTT6=
EXTT7=
EXTT8=
EXTT9=
EXTT10=
EXTT11=
EXTT12=
PLAYORDER=
